<svg xmlns="http://www.w3.org/2000/svg" version="1.1" xmlns:xlink="http://www.w3.org/1999/xlink" xmlns:svgjs="http://svgjs.com/svgjs" width="1440" height="900" preserveAspectRatio="none" viewBox="0 0 1440 900"><g mask="url(&quot;#SvgjsMask1040&quot;)" fill="none"><rect width="1440" height="900" x="0" y="0" fill="rgba(230, 230, 231, 1)"></rect><path d="M0,588.856C106.765,570.577,178.048,477.156,266.162,414.157C349.184,354.799,466.071,324.827,502.584,229.523C538.966,134.561,472.684,34.396,449.602,-64.643C428.75,-154.112,421.599,-245.405,373.634,-323.756C319.453,-412.26,258.225,-511.099,158.571,-540.042C58.956,-568.974,-47.909,-522.636,-138.761,-472.575C-218.145,-428.833,-263.301,-347.948,-319.337,-276.707C-372.475,-209.151,-430.959,-147.318,-458.611,-65.938C-490.464,27.805,-510.315,126.701,-489.282,223.448C-465.239,334.044,-422.656,448.841,-331.975,516.564C-239.36,585.732,-113.935,608.363,0,588.856" fill="#cacacc"></path><path d="M1440 1482.538C1547.409 1502.717 1650.634 1429.5810000000001 1739.117 1365.435 1824.165 1303.78 1898.601 1224.3980000000001 1932.9940000000001 1125.143 1965.847 1030.3319999999999 1933.596 930.266 1924.535 830.3340000000001 1914.905 724.1279999999999 1952.479 596.812 1878.152 520.3389999999999 1803.417 443.447 1674.517 477.017 1568.128 463.638 1479.985 452.554 1394.485 430.772 1307.449 448.571 1214.95 467.488 1120.674 498.418 1057.036 568.1600000000001 992.721 638.643 974.8140000000001 736.755 958.675 830.796 942.146 927.107 914.421 1033.013 962.675 1117.987 1010.354 1201.9479999999999 1128.598 1206.545 1205.3319999999999 1265.15 1291.824 1331.2069999999999 1333.039 1462.443 1440 1482.538" fill="#ffffff"></path></g><defs><mask id="SvgjsMask1040"><rect width="1440" height="900" fill="#ffffff"></rect></mask></defs></svg>